<svg version="1.1" xmlns="http://www.w3.org/2000/svg" xmlns:xlink="http://www.w3.org/1999/xlink" width="160.27236" height="54.672" viewBox="0,0,160.27236,54.672"><defs><linearGradient x1="125.22973" y1="180.0002" x2="285.50033" y2="180.0002" gradientUnits="userSpaceOnUse" id="color-1"><stop offset="0.012" stop-color="#a7a9ac"/><stop offset="1" stop-color="#414042"/></linearGradient><linearGradient x1="129.04082" y1="180.0008" x2="282.08765" y2="180.0008" gradientUnits="userSpaceOnUse" id="color-2"><stop offset="0" stop-color="#d1d2d3"/><stop offset="1" stop-color="#a4a5a8"/></linearGradient></defs><g transform="translate(-125.22814,-152.664)"><g data-paper-data="{&quot;isPaintingLayer&quot;:true}" fill-rule="nonzero" stroke="none" stroke-width="1" stroke-linecap="butt" stroke-linejoin="miter" stroke-miterlimit="10" stroke-dasharray="" stroke-dashoffset="0" style="mix-blend-mode: normal"><path d="M285.5005,198.731c0,4.752 -6.78773,8.605 -15.15526,8.605h-129.96361c-8.36929,0 -15.1535,-3.854 -15.1535,-8.605v-37.463c0,-4.752 6.78421,-8.604 15.1535,-8.604h129.96185c8.37282,0 15.15526,3.852 15.15526,8.604v37.463z" fill="url(#color-1)"/><path d="M282.08601,161.2695v37.462c0,2.862 -4.23106,5.19 -9.43851,5.19h-134.17c-5.20199,0 -9.43668,-2.328 -9.43668,-5.19v-37.463c0,-2.862 4.23469,-5.19 9.43668,-5.19h134.17001c5.20745,0 9.43851,2.329 9.43851,5.191z" fill="url(#color-2)"/><text transform="translate(172.87008,175.53622) scale(0.5,0.5)" font-size="40" xml:space="preserve" fill="#ffffff" fill-rule="nonzero" stroke="none" stroke-width="1" stroke-linecap="butt" stroke-linejoin="miter" stroke-miterlimit="10" stroke-dasharray="" stroke-dashoffset="0" font-family="Sans Serif" font-weight="normal" text-anchor="start" style="mix-blend-mode: normal"><tspan x="0" dy="0">MENU</tspan></text><text transform="translate(157.09465,196.69837) scale(0.5,0.5)" font-size="40" xml:space="preserve" fill="#ffffff" fill-rule="nonzero" stroke="none" stroke-width="1" stroke-linecap="butt" stroke-linejoin="miter" stroke-miterlimit="10" stroke-dasharray="" stroke-dashoffset="0" font-family="Sans Serif" font-weight="normal" text-anchor="start" style="mix-blend-mode: normal"><tspan x="0" dy="0">PRINCIPAL</tspan></text></g></g></svg>