<svg version="1.1" xmlns="http://www.w3.org/2000/svg" xmlns:xlink="http://www.w3.org/1999/xlink" width="442.28973" height="77.25229" viewBox="0,0,442.28973,77.25229"><g transform="translate(17.04064,-49.31378)"><g data-paper-data="{&quot;isPaintingLayer&quot;:true}" fill-rule="nonzero" stroke-linecap="butt" stroke-linejoin="miter" stroke-miterlimit="10" stroke-dasharray="" stroke-dashoffset="0" style="mix-blend-mode: normal"><path d="M0.08268,125.50232c-1.33745,-2.72445 -4.47138,-4.85168 -9.0952,-6.06444c-0.18186,-0.0477 -0.37393,-0.13488 -0.57492,-0.25364c-0.99588,-1.57796 -2.42089,-2.85801 -4.11114,-3.67623c-0.73503,-0.35582 -1.5202,-0.6243 -2.34206,-0.79197v-55.43753c0.73588,-0.13517 1.44359,-0.35089 2.11362,-0.63769c0.29603,-0.12671 0.5847,-0.26729 0.8652,-0.42093c0.22541,-0.11157 0.43773,-0.21703 0.63254,-0.3109c4.39654,-2.1186 7.53955,-5.06034 11.5345,-7.53543h406.78509c0.90884,1.80481 3.44545,3.8589 4.30056,4.99906c2.50345,3.33794 7.71573,7.80757 13.05077,9.55517v42.02522c-2.10338,1.53932 -2.9589,3.37856 -4.24651,5.49889c-1.88644,1.7375 -3.71991,4.07936 -5.12406,6.60202c-1.18234,1.37282 -2.361,2.76924 -3.3876,4.22921c-0.68409,0.65103 -1.27608,1.39794 -1.75443,2.21919z" fill="#9966ff" stroke="#9966ff" stroke-width="2"/><path d="M13.20042,113.45165c0,7.2429 -6.60547,13.11442 -14.75372,13.11442c-8.14825,0 -14.75372,-5.87152 -14.75372,-13.11442c0,-7.2429 6.60547,-13.11442 14.75373,-13.11442c8.14825,0 14.75372,5.87153 14.75372,13.11442z" fill="#9966ff" stroke="none" stroke-width="0"/><path d="M13.14024,62.42821c0,7.24289 -6.60546,13.11442 -14.75372,13.11442c-8.14825,0 -14.75373,-5.87152 -14.75373,-13.11442c0,-7.2429 6.60547,-13.11442 14.75373,-13.11442c8.14825,0 14.75372,5.87153 14.75372,13.11442z" fill="#9966ff" stroke="none" stroke-width="0"/><path d="M425.24909,113.45165c0,3.03461 -1.15954,5.82848 -3.10626,8.05065c-0.40134,0.34786 -0.7747,0.72715 -1.11625,1.13404c-2.67733,2.42526 -6.40661,3.92974 -10.53121,3.92974c-8.14826,0 -14.75372,-5.87152 -14.75372,-13.11442c0,-7.2429 6.60547,-13.11442 14.75372,-13.11442c8.14826,0 14.75372,5.87153 14.75372,13.11442z" fill="#9966ff" stroke="none" stroke-width="0"/><path d="M425.18891,62.42821c0,7.24289 -6.60546,13.11442 -14.75372,13.11442c-8.14826,0 -14.75372,-5.87152 -14.75372,-13.11442c0,-7.2429 6.60547,-13.11442 14.75372,-13.11442c5.02332,0 9.46029,2.23153 12.1247,5.6402c0.18511,0.28656 0.38448,0.56305 0.59709,0.82846c1.29126,1.94883 2.03193,4.22041 2.03193,6.64576z" fill="#9966ff" stroke="none" stroke-width="0"/><path d="M425.20818,109.02027c0,3.03461 -1.15954,5.82848 -3.10626,8.05064c-0.40134,0.34786 -0.7747,0.72715 -1.11625,1.13404c-2.67732,2.42526 -6.40661,3.92974 -10.53121,3.92974c-8.14826,0 -14.75373,-5.87152 -14.75373,-13.11442c0,-7.2429 6.60547,-13.11442 14.75373,-13.11442c8.14826,0 14.75372,5.87153 14.75372,13.11442z" fill="#9966ff" stroke="none" stroke-width="0"/><text transform="translate(14.10631,92.13627) scale(0.5,0.5)" font-size="40" xml:space="preserve" fill="#000000" fill-rule="nonzero" stroke="none" stroke-width="1" stroke-linecap="butt" stroke-linejoin="miter" stroke-miterlimit="10" stroke-dasharray="" stroke-dashoffset="0" font-family="Sans Serif" font-weight="normal" text-anchor="start" style="mix-blend-mode: normal"><tspan x="0" dy="0">36. ¿Cuántos tipos de conductores hay?</tspan></text></g></g></svg>